<svg width="264" height="64" viewBox="0 0 264 64" fill="none" xmlns="http://www.w3.org/2000/svg">
<g clip-path="url(#clip0_65_908)">
<path d="M167.045 56.4503L45.0555 56.4444L27.7129 63.9921L149.705 63.997L212.027 64L229.359 56.4529L167.045 56.4503Z" fill="white"/>
<mask id="mask0_65_908" style="mask-type:luminance" maskUnits="userSpaceOnUse" x="69" y="17" width="155" height="29">
<path d="M69.6465 17.3335H223.525V45.3335H69.6465V17.3335Z" fill="white"/>
</mask>
<g mask="url(#mask0_65_908)">
<path d="M168.55 29.4136L82.447 29.4106L70.2061 33.2372L156.312 33.2397L200.3 33.2412L212.534 29.4149L168.55 29.4136Z" stroke="white" stroke-width="5.89733"/>
</g>
<path d="M156.869 0.20734L52.4045 0.164085L37.5581 63.7907L142.025 63.8364L204.668 63.8589L219.514 0.234009L156.869 0.20734Z" fill="white"/>
<mask id="mask1_65_908" style="mask-type:luminance" maskUnits="userSpaceOnUse" x="48" y="13" width="160" height="13">
<path d="M48.1328 13.7778H207.116V25.7778H48.1328V13.7778Z" fill="white"/>
</mask>
<g mask="url(#mask1_65_908)">
<path d="M143.369 18.8606L60.344 18.8595L48.5444 20.39L131.572 20.3911L181.359 20.3916L193.158 18.8612L143.369 18.8606Z" stroke="white" stroke-width="12.636"/>
</g>
<path d="M151.894 63.8354L0.747559 63.7904L22.2278 0.163754L173.37 0.206417L151.894 63.8354Z" fill="#2B2B2A"/>
<path d="M151.893 63.8359L242.527 63.8584L264.006 0.233505L173.369 0.206841L151.893 63.8359Z" fill="#E41F25"/>
<mask id="mask2_65_908" style="mask-type:luminance" maskUnits="userSpaceOnUse" x="0" y="-212" width="290" height="500">
<path d="M0 -211.111H289.418V287.787H0V-211.111Z" fill="white"/>
</mask>
<g mask="url(#mask2_65_908)">
<path d="M33.0147 14.8377H35.2327C37.1497 14.8377 40.359 14.9136 38.1401 21.4884C35.7927 28.4217 32.7298 28.9876 29.7995 28.9894L28.2374 28.9876L33.0147 14.8377ZM25.629 36.7067H28.3055C35.4685 36.7168 41.9766 30.4253 45.1655 20.9841C47.5006 14.0555 46.4252 10.8347 45.0118 9.33845C43.3189 7.47178 40.2428 7.33134 37.9709 7.33786L29.6916 7.32482C29.2394 7.33489 28.6385 7.46941 28.2043 8.76304L12.6439 54.8703C12.4246 55.5079 12.2593 56.2943 13.168 56.2884L18.0109 56.2979C18.9186 56.2943 19.2876 55.5144 19.4982 54.8703L25.629 36.7067Z" fill="#FFEE00"/>
<path d="M172.747 0.0434647L22.5095 -7.00189e-07L1.15771 63.9315L151.4 63.9774L241.491 64L262.842 0.070258L172.747 0.0434647Z" stroke="#2B2B2A" stroke-width="2"/>
<path d="M50.5413 49.8018C45.447 49.8018 49.2291 37.7153 51.2093 31.8569C53.546 24.9224 57.837 13.8427 62.6809 13.8427C67.5268 13.8468 64.3432 24.9247 61.9959 31.8522C60.0171 37.7212 55.6336 49.8018 50.5413 49.8018ZM69.1623 31.8599C70.9223 26.6462 77.5904 6.12593 65.2884 6.11763C52.9795 6.11704 45.7995 26.6433 44.0405 31.8599C42.2995 37.0065 35.6319 57.5132 47.9407 57.5215C60.2456 57.5215 67.4227 37.0148 69.1623 31.8599Z" fill="#FFEE00"/>
<path d="M115.335 9.38135C115.626 8.81424 115.782 8.52327 115.875 8.23409C116.046 7.73394 115.896 7.45305 115.517 7.38846L110.968 7.39261C109.912 7.10757 109.594 8.03913 109.251 8.74668L98.6837 31.2996C96.9246 35.011 95.6834 37.9455 92.9617 44.8089H92.8611C94.7679 37.3731 95.5701 33.8027 96.013 31.296L99.8821 9.06787C99.9944 8.4255 100.259 7.3535 99.4037 7.3452L95.7174 7.35054C95.1131 7.3535 94.6391 7.70905 93.9069 9.13661L82.7916 31.2919C81.8625 33.1562 79.0757 38.8729 76.6151 44.8077H76.5125C77.6167 40.7941 79.3553 34.1553 79.9708 31.2919L84.5969 8.80416C84.9469 7.15735 84.5098 7.36535 83.8686 7.34402L79.2157 7.34105C78.7086 7.48387 78.3873 7.83824 78.2876 8.12387C78.1685 8.49068 78.046 9.34639 77.8797 10.1274L69.0636 55.6705C68.9489 56.3105 68.8828 56.9576 69.7419 56.9547H74.3315C74.736 56.9547 74.8862 57.0951 75.6213 55.677L87.8179 31.6551C88.8923 29.5088 91.4351 23.9325 93.2568 19.2942L93.3638 19.2889C91.5139 26.0824 90.7598 29.5123 90.3421 31.6551L85.561 55.6705C85.28 57.0975 85.5342 56.9576 85.9373 56.9642L90.5799 56.9576C91.4327 56.9642 91.8002 56.3212 92.1235 55.6735C115.031 9.7849 115.335 9.38135 115.335 9.38135Z" fill="#FFEE00"/>
<path d="M116.183 34.6658L124.665 34.6641C125.114 34.6593 125.715 34.5207 126.154 33.2353L127.791 28.382C128.009 27.7331 128.173 26.9467 127.267 26.9438L118.792 26.9402L122.797 15.0801L132.737 15.0848C133.491 15.0824 133.888 14.3654 134.059 14.0081L136.872 8.65102C137.022 8.35947 137.199 8.00687 137.142 7.71532C137.089 7.42969 136.857 7.36272 136.651 7.36036L119.55 7.35324C119.091 7.35087 118.492 7.49369 118.061 8.78732L102.491 54.8904C102.281 55.5334 102.115 56.3174 103.025 56.3209L119.368 56.334C119.819 56.3233 120.424 56.1775 120.862 54.8969L122.503 50.0341C122.937 48.7435 122.425 48.6101 121.968 48.6072H111.479L116.183 34.6658Z" fill="#FFEE00"/>
<path d="M140.559 28.5969L145.187 14.8754L147.056 14.8695C149.677 14.8713 152.503 15.0194 150.381 21.3056C148.114 28.0256 144.841 28.5963 141.863 28.5922L140.559 28.5969ZM138.021 36.105L140.441 36.1009L140.755 54.1033C140.86 55.8864 140.915 56.3273 141.868 56.3599L147.19 56.3439C147.588 56.2005 147.939 56.0553 148.111 55.5563C148.232 55.2037 148.15 54.844 148.142 54.2692L147.024 34.3889C149.474 32.9536 151.071 31.8147 152.803 29.6695C154.955 27.0194 156.371 23.884 157.34 21.0212C158.232 18.3794 159.429 14.0932 158.041 10.8742C156.629 7.72283 153.273 7.36549 150.141 7.36253H141.865C141.412 7.36253 140.809 7.50475 140.375 8.79127L124.813 54.9033C124.598 55.5433 124.425 56.3273 125.339 56.3338H130.181C131.088 56.3338 131.454 55.5468 131.673 54.9033L138.021 36.105Z" fill="#FFEE00"/>
<path d="M204.199 29.1784L208.033 17.8178H209.578C211.745 17.8178 214.083 17.9369 212.331 23.1488C210.452 28.7073 207.75 29.182 205.284 29.1784H204.199ZM202.099 35.3864L204.106 35.3905L204.364 50.2783C204.447 51.7627 204.494 52.1313 205.284 52.1538L209.686 52.1414C210.016 52.0199 210.309 51.9025 210.449 51.4871C210.547 51.1932 210.486 50.8987 210.476 50.4252L209.553 33.9731C211.583 32.7849 212.897 31.8451 214.332 30.0673C216.117 27.8806 217.29 25.2774 218.09 22.91C218.827 20.7174 219.812 17.1695 218.666 14.5094C217.506 11.9037 214.724 11.6074 212.128 11.6104H205.281C204.905 11.6074 204.408 11.7248 204.055 12.7903L191.167 50.9514C190.991 51.4812 190.854 52.1277 191.609 52.1277L195.616 52.1313C196.365 52.1277 196.674 51.4812 196.849 50.9443L202.099 35.3864Z" fill="white"/>
<path d="M186.765 17.8103L188.603 17.8127C190.188 17.8056 192.842 17.8731 191.006 23.3149C189.065 29.0512 186.527 29.5188 184.103 29.5247L182.812 29.5289L186.765 17.8103ZM180.656 35.914L182.869 35.9164C188.801 35.9164 194.181 30.7105 196.825 22.9013C198.758 17.1644 197.869 14.5001 196.697 13.2569C195.293 11.7155 192.748 11.6006 190.863 11.6023L184.018 11.5905C183.644 11.5946 183.142 11.7155 182.784 12.7828L169.901 50.9416C169.723 51.4684 169.592 52.125 170.341 52.1214L174.351 52.125C175.1 52.125 175.406 51.4684 175.583 50.9416L180.656 35.914Z" fill="white"/>
<path d="M222.751 46.7552C218.527 46.7498 221.653 36.7522 223.293 31.9036C225.225 26.1673 228.782 16.9981 232.794 16.9981C236.8 16.9981 234.168 26.162 232.228 31.9054C230.596 36.7593 226.963 46.7569 222.751 46.7552ZM238.157 31.9072C239.614 27.5889 245.141 10.604 234.952 10.6076C224.767 10.6023 218.822 27.5848 217.364 31.9054C215.929 36.156 210.406 53.1362 220.591 53.1392C230.781 53.1457 236.722 36.1726 238.157 31.9072Z" fill="white"/>
</g>
</g>
<defs>
<clipPath id="clip0_65_908">
<rect width="264" height="64" fill="white"/>
</clipPath>
</defs>
</svg>
