<svg width="264" height="118" viewBox="0 0 264 118" fill="none" xmlns="http://www.w3.org/2000/svg">
<path d="M64.3354 3.71815C60.073 5.84414 57.1426 8.90026 52.081 17.0056C46.0871 26.3069 44.8883 27.5027 41.4251 27.5027C31.7015 27.5027 26.5067 34.0136 33.9659 36.804C35.8307 37.4683 37.2959 38.5313 37.2959 39.1957C37.2959 40.9231 15.4512 78.6595 11.4552 83.9745C7.72558 88.758 4.39559 89.821 1.5984 87.0306C0.399599 85.8348 0 86.2334 0 88.8909C0 96.5976 12.5208 99.388 19.7135 93.2758C23.7095 89.9539 33.1667 74.8062 44.6219 53.6791C51.415 41.1888 53.2798 39.4615 60.3394 39.4615C68.9974 39.4615 72.5938 31.0904 64.6018 29.6287C59.407 28.5657 59.0074 27.7685 61.9378 22.1877C65.2678 15.6769 70.1962 12.8865 78.055 12.8865C84.715 12.8865 85.2477 12.6208 86.0469 9.29889C88.0449 1.45927 75.391 -1.72972 64.3354 3.71815Z" fill="#0A0A0A"/>
<path d="M106.427 22.1875C98.035 30.9573 92.707 35.475 90.8423 35.475C87.6455 35.475 86.9795 37.9996 89.3771 40.3914C90.5759 41.5872 89.9099 43.5804 86.8463 48.3639C81.2519 57.1336 78.5879 63.7773 78.5879 69.3581C78.5879 77.8621 86.0471 81.7154 94.3054 77.4634C98.4346 75.3374 111.888 61.6513 111.888 59.5253C111.888 58.7281 108.158 60.1897 103.496 62.7143C98.8342 65.2389 94.5718 67.3649 94.039 67.3649C92.8402 67.3649 98.3014 57.0007 102.431 51.5528C106.027 46.7694 112.287 43.4475 117.882 43.4475C121.611 43.4475 126.54 39.1955 126.54 36.1394C126.54 34.9435 124.941 33.4819 123.077 32.8175C119.48 31.3559 119.48 31.4888 124.808 23.6491C126.54 21.1245 127.872 18.0684 127.872 16.7397C127.872 13.9493 123.343 8.90004 120.945 8.90004C120.013 8.90004 113.486 14.8794 106.427 22.1875Z" fill="#0A0A0A"/>
<path d="M77.1225 20.7262C72.9933 24.8453 71.7945 26.8384 72.1941 29.7617C72.4605 32.6849 73.3929 33.615 76.1901 33.8808C79.1205 34.2794 80.4525 33.3493 83.2497 28.9644C86.9792 23.5166 87.3788 16.8728 84.1821 15.8098C83.2497 15.5441 80.0529 17.6701 77.1225 20.7262Z" fill="#0A0A0A"/>
<path d="M221.378 21.6565C217.648 24.314 214.185 30.6919 215.25 33.3494C216.982 38.0001 224.841 34.4124 228.57 27.2372C232.167 20.3277 228.037 17.0058 221.378 21.6565Z" fill="#0A0A0A"/>
<path d="M146.387 33.4824C139.327 37.3358 126.407 57.5327 124.542 67.6312C123.743 71.4846 124.142 72.9462 126.407 75.2051C130.403 79.1913 132.667 78.7927 143.856 72.1489L153.846 66.3025L154.911 70.1558C156.909 77.7297 163.836 77.7297 174.891 70.1558C187.412 61.6518 201.398 42.9165 199.4 37.4686C197.802 33.4824 193.939 36.007 189.41 44.1124C185.414 51.4205 169.963 68.6942 167.565 68.6942C165.301 68.6942 166.766 65.5052 173.16 55.6725C184.082 39.3289 180.353 32.1536 167.432 44.3781C160.373 51.0219 146.253 62.0505 144.788 62.0505C144.389 62.0505 146.387 58.0642 149.317 53.015C155.711 41.9864 156.909 36.8043 153.846 33.7481C151.182 31.0906 150.915 31.0906 146.387 33.4824Z" fill="#0A0A0A"/>
<path d="M67.1324 40.1263C62.8701 44.3783 49.2837 72.282 49.2837 76.7997C49.2837 86.4996 58.8741 87.0311 68.0648 77.8627C73.526 72.4149 74.858 69.093 70.9952 70.6875C66.0668 72.6806 63.9356 72.9464 63.9356 71.4847C63.9356 70.5546 66.9992 64.3095 70.5956 57.5329C77.3888 44.9098 78.4544 41.1893 75.6572 38.3989C73.2596 36.0072 70.862 36.4058 67.1324 40.1263Z" fill="#0A0A0A"/>
<path d="M210.189 38.2656C207.125 39.993 190.742 63.3789 189.01 68.561C186.213 76.4007 191.541 79.9883 200.732 76.5335C204.861 75.0719 210.455 70.2884 210.455 68.2953C210.455 67.6309 208.724 67.498 206.459 68.0295C204.328 68.561 202.463 68.4282 202.463 67.7638C202.463 67.2323 206.06 61.6516 210.455 55.5393C218.581 44.1121 219.646 41.1888 216.849 38.3985C214.984 36.5382 213.253 36.4053 210.189 38.2656Z" fill="#0A0A0A"/>
<path d="M235.497 40.1261C232.167 41.9863 220.179 58.7285 215.25 68.2955C210.988 76.6666 213.386 83.9748 220.046 83.0446C222.044 82.7789 224.308 80.3871 227.105 75.3379C230.835 68.5613 241.357 59.26 243.089 60.9874C243.622 61.386 242.689 63.7778 241.224 66.1695C237.894 71.4845 237.628 78.9255 240.558 83.0446C244.288 88.4925 255.077 85.9679 261.071 78.394C264.401 74.142 262.536 72.6804 257.741 75.8694C249.483 81.3173 249.749 76.4009 258.54 62.1833C266.799 48.8958 266.399 48.0986 252.413 48.2314C242.823 48.2314 242.689 48.2314 243.888 45.1753C244.687 43.0493 244.421 41.5877 242.956 40.1261C240.425 37.7343 240.025 37.7343 235.497 40.1261Z" fill="#0A0A0A"/>
<path d="M131.868 81.9816C108.957 83.4433 88.8443 86.2336 67.932 90.7514C52.0812 94.339 22.1113 103.507 18.6481 106.032C17.0497 107.095 17.1829 107.228 19.3141 106.696C45.288 100.053 66.4668 96.0664 87.7787 93.9404C104.828 92.3459 148.518 92.213 169.83 93.9404C196.203 96.0664 248.817 96.9965 246.286 95.402C242.557 93.0102 220.046 87.4295 203.13 84.6391C183.682 81.4501 157.575 80.52 131.868 81.9816Z" fill="#0A0A0A"/>
</svg>
