<svg width="323" height="22" viewBox="0 0 323 22" fill="none" xmlns="http://www.w3.org/2000/svg">
<path d="M0.000187561 14.56H5.90819C6.00152 15.1387 6.27219 15.6427 6.72019 16.072C7.16819 16.5013 7.76552 16.8373 8.51219 17.08C9.27752 17.304 10.1735 17.416 11.2002 17.416C12.6189 17.416 13.7389 17.2387 14.5602 16.884C15.3815 16.5107 15.7922 15.9693 15.7922 15.26C15.7922 14.7187 15.5589 14.2987 15.0922 14C14.6255 13.7013 13.7295 13.4867 12.4042 13.356L8.48419 12.992C5.59085 12.7307 3.49085 12.0773 2.18419 11.032C0.877521 9.968 0.224188 8.54 0.224188 6.748C0.224188 5.292 0.644188 4.06 1.48419 3.052C2.34285 2.044 3.53752 1.288 5.06819 0.783997C6.61752 0.26133 8.41885 -2.86102e-06 10.4722 -2.86102e-06C12.4882 -2.86102e-06 14.2802 0.289331 15.8482 0.867998C17.4162 1.428 18.6575 2.23066 19.5722 3.276C20.5055 4.32133 21.0095 5.53466 21.0842 6.916H15.2042C15.1295 6.412 14.8869 5.98266 14.4762 5.628C14.0842 5.25466 13.5429 4.97466 12.8522 4.788C12.1615 4.58266 11.3309 4.48 10.3602 4.48C9.05352 4.48 8.01752 4.65733 7.25219 5.012C6.48685 5.348 6.10419 5.852 6.10419 6.524C6.10419 7.00933 6.32819 7.40133 6.77619 7.7C7.24285 7.99866 8.07352 8.204 9.26819 8.316L13.4402 8.736C15.4375 8.92266 17.0335 9.24933 18.2282 9.716C19.4229 10.164 20.2909 10.7893 20.8322 11.592C21.3735 12.3947 21.6442 13.3933 21.6442 14.588C21.6442 16.0627 21.2055 17.3507 20.3282 18.452C19.4509 19.5347 18.2189 20.384 16.6322 21C15.0455 21.5973 13.1975 21.896 11.0882 21.896C8.92285 21.896 7.00952 21.5973 5.34819 21C3.70552 20.384 2.41752 19.5253 1.48419 18.424C0.550854 17.304 0.0561875 16.016 0.000187561 14.56ZM37.1778 0.447996C38.9325 0.447996 40.4445 0.746663 41.7138 1.344C43.0018 1.94133 43.9818 2.79066 44.6538 3.892C45.3258 4.97466 45.6618 6.244 45.6618 7.7C45.6618 9.13733 45.3258 10.4067 44.6538 11.508C43.9818 12.5907 43.0018 13.4307 41.7138 14.028C40.4445 14.6253 38.9325 14.924 37.1778 14.924H28.0778V10.276H36.8138C37.7472 10.276 38.4752 10.052 38.9978 9.604C39.5205 9.13733 39.7818 8.50266 39.7818 7.7C39.7818 6.87866 39.5205 6.244 38.9978 5.796C38.4752 5.32933 37.7472 5.096 36.8138 5.096H28.5818L31.1858 2.408V21.448H25.3898V0.447996H37.1778ZM60.5705 21.896C58.0879 21.896 55.9039 21.4387 54.0185 20.524C52.1519 19.6093 50.6959 18.3307 49.6505 16.688C48.6239 15.0453 48.1105 13.132 48.1105 10.948C48.1105 8.764 48.6239 6.85066 49.6505 5.208C50.6959 3.56533 52.1519 2.28666 54.0185 1.372C55.9039 0.457331 58.0879 -2.86102e-06 60.5705 -2.86102e-06C63.0719 -2.86102e-06 65.2559 0.457331 67.1225 1.372C68.9892 2.28666 70.4452 3.56533 71.4905 5.208C72.5359 6.85066 73.0585 8.764 73.0585 10.948C73.0585 13.132 72.5359 15.0453 71.4905 16.688C70.4452 18.3307 68.9892 19.6093 67.1225 20.524C65.2559 21.4387 63.0719 21.896 60.5705 21.896ZM60.5705 16.716C61.9332 16.716 63.1092 16.4827 64.0985 16.016C65.0879 15.5493 65.8439 14.8867 66.3665 14.028C66.9079 13.1693 67.1785 12.1427 67.1785 10.948C67.1785 9.75333 66.9079 8.72666 66.3665 7.868C65.8439 7.00933 65.0879 6.34666 64.0985 5.88C63.1092 5.41333 61.9332 5.18 60.5705 5.18C59.2265 5.18 58.0599 5.41333 57.0705 5.88C56.0812 6.34666 55.3159 7.00933 54.7745 7.868C54.2332 8.72666 53.9625 9.75333 53.9625 10.948C53.9625 12.1427 54.2332 13.1693 54.7745 14.028C55.3159 14.8867 56.0812 15.5493 57.0705 16.016C58.0599 16.4827 59.2265 16.716 60.5705 16.716ZM80.8942 9.632H88.5382C89.4715 9.632 90.1995 9.41733 90.7222 8.988C91.2448 8.55866 91.5062 7.96133 91.5062 7.196C91.5062 6.412 91.2448 5.81466 90.7222 5.404C90.1995 4.97466 89.4715 4.76 88.5382 4.76H80.0822L82.6862 1.988V21.448H76.8902V0.447996H89.3502C90.9555 0.447996 92.3555 0.73733 93.5502 1.316C94.7448 1.876 95.6782 2.66 96.3502 3.668C97.0222 4.65733 97.3582 5.83333 97.3582 7.196C97.3582 8.52133 97.0222 9.688 96.3502 10.696C95.6782 11.704 94.7448 12.488 93.5502 13.048C92.3555 13.608 90.9555 13.888 89.3502 13.888H80.8942V9.632ZM84.0302 11.62H90.5542L98.0862 21.448H91.3662L84.0302 11.62ZM107.498 2.996H113.322V21.448H107.498V2.996ZM99.4897 0.447996H121.33V5.6H99.4897V0.447996Z" fill="#FEFEFE"/>
<path d="M144.132 17.388L142.34 17.752V0.447996H147.968V21.448H140.66L128.536 4.172L130.3 3.808V21.448H124.672V0.447996H132.176L144.132 17.388ZM158.235 12.068C158.235 13.02 158.412 13.8507 158.767 14.56C159.14 15.2507 159.681 15.7827 160.391 16.156C161.119 16.5293 162.005 16.716 163.051 16.716C164.115 16.716 165.001 16.5293 165.711 16.156C166.42 15.7827 166.952 15.2507 167.307 14.56C167.661 13.8507 167.839 13.02 167.839 12.068V0.447996H173.663V12.348C173.663 14.2707 173.215 15.9507 172.319 17.388C171.441 18.8067 170.209 19.9173 168.623 20.72C167.036 21.504 165.179 21.896 163.051 21.896C160.941 21.896 159.084 21.504 157.479 20.72C155.892 19.9173 154.651 18.8067 153.755 17.388C152.877 15.9507 152.439 14.2707 152.439 12.348V0.447996H158.235V12.068ZM184.721 2.996H190.545V21.448H184.721V2.996ZM176.713 0.447996H198.553V5.6H176.713V0.447996ZM205.899 9.632H213.543C214.476 9.632 215.204 9.41733 215.727 8.988C216.25 8.55866 216.511 7.96133 216.511 7.196C216.511 6.412 216.25 5.81466 215.727 5.404C215.204 4.97466 214.476 4.76 213.543 4.76H205.087L207.691 1.988V21.448H201.895V0.447996H214.355C215.96 0.447996 217.36 0.73733 218.555 1.316C219.75 1.876 220.683 2.66 221.355 3.668C222.027 4.65733 222.363 5.83333 222.363 7.196C222.363 8.52133 222.027 9.688 221.355 10.696C220.683 11.704 219.75 12.488 218.555 13.048C217.36 13.608 215.96 13.888 214.355 13.888H205.899V9.632ZM209.035 11.62H215.559L223.091 21.448H216.371L209.035 11.62ZM226.524 0.447996H232.32V21.448H226.524V0.447996ZM243.651 2.996H249.475V21.448H243.651V2.996ZM235.643 0.447996H257.483V5.6H235.643V0.447996ZM260.825 0.447996H266.621V21.448H260.825V0.447996ZM282.908 21.896C280.425 21.896 278.241 21.4387 276.356 20.524C274.489 19.6093 273.033 18.3307 271.988 16.688C270.961 15.0453 270.448 13.132 270.448 10.948C270.448 8.764 270.961 6.85066 271.988 5.208C273.033 3.56533 274.489 2.28666 276.356 1.372C278.241 0.457331 280.425 -2.86102e-06 282.908 -2.86102e-06C285.409 -2.86102e-06 287.593 0.457331 289.46 1.372C291.327 2.28666 292.783 3.56533 293.828 5.208C294.873 6.85066 295.396 8.764 295.396 10.948C295.396 13.132 294.873 15.0453 293.828 16.688C292.783 18.3307 291.327 19.6093 289.46 20.524C287.593 21.4387 285.409 21.896 282.908 21.896ZM282.908 16.716C284.271 16.716 285.447 16.4827 286.436 16.016C287.425 15.5493 288.181 14.8867 288.704 14.028C289.245 13.1693 289.516 12.1427 289.516 10.948C289.516 9.75333 289.245 8.72666 288.704 7.868C288.181 7.00933 287.425 6.34666 286.436 5.88C285.447 5.41333 284.271 5.18 282.908 5.18C281.564 5.18 280.397 5.41333 279.408 5.88C278.419 6.34666 277.653 7.00933 277.112 7.868C276.571 8.72666 276.3 9.75333 276.3 10.948C276.3 12.1427 276.571 13.1693 277.112 14.028C277.653 14.8867 278.419 15.5493 279.408 16.016C280.397 16.4827 281.564 16.716 282.908 16.716ZM318.688 17.388L316.896 17.752V0.447996H322.524V21.448H315.216L303.092 4.172L304.856 3.808V21.448H299.228V0.447996H306.732L318.688 17.388Z" fill="#E41F25"/>
</svg>
