<svg width="234" height="22" viewBox="0 0 234 22" fill="none" xmlns="http://www.w3.org/2000/svg">
<path d="M11.788 0.447996C13.5427 0.447996 15.0547 0.746663 16.324 1.344C17.612 1.94133 18.592 2.79066 19.264 3.892C19.936 4.97466 20.272 6.244 20.272 7.7C20.272 9.13733 19.936 10.4067 19.264 11.508C18.592 12.5907 17.612 13.4307 16.324 14.028C15.0547 14.6253 13.5427 14.924 11.788 14.924H2.68804V10.276H11.424C12.3574 10.276 13.0854 10.052 13.608 9.604C14.1307 9.13733 14.392 8.50266 14.392 7.7C14.392 6.87866 14.1307 6.244 13.608 5.796C13.0854 5.32933 12.3574 5.096 11.424 5.096H3.19204L5.79604 2.408V21.448H3.90708e-05V0.447996H11.788ZM27.6487 9.632H35.2927C36.2261 9.632 36.9541 9.41733 37.4767 8.988C37.9994 8.55866 38.2607 7.96133 38.2607 7.196C38.2607 6.412 37.9994 5.81466 37.4767 5.404C36.9541 4.97466 36.2261 4.76 35.2927 4.76H26.8367L29.4407 1.988V21.448H23.6447V0.447996H36.1047C37.7101 0.447996 39.1101 0.73733 40.3047 1.316C41.4994 1.876 42.4327 2.66 43.1047 3.668C43.7767 4.65733 44.1127 5.83333 44.1127 7.196C44.1127 8.52133 43.7767 9.688 43.1047 10.696C42.4327 11.704 41.4994 12.488 40.3047 13.048C39.1101 13.608 37.7101 13.888 36.1047 13.888H27.6487V9.632ZM30.7847 11.62H37.3087L44.8407 21.448H38.1207L30.7847 11.62ZM59.591 21.896C57.1084 21.896 54.9244 21.4387 53.039 20.524C51.1724 19.6093 49.7164 18.3307 48.671 16.688C47.6444 15.0453 47.131 13.132 47.131 10.948C47.131 8.764 47.6444 6.85066 48.671 5.208C49.7164 3.56533 51.1724 2.28666 53.039 1.372C54.9244 0.457331 57.1084 -2.86102e-06 59.591 -2.86102e-06C62.0924 -2.86102e-06 64.2764 0.457331 66.143 1.372C68.0097 2.28666 69.4657 3.56533 70.511 5.208C71.5564 6.85066 72.079 8.764 72.079 10.948C72.079 13.132 71.5564 15.0453 70.511 16.688C69.4657 18.3307 68.0097 19.6093 66.143 20.524C64.2764 21.4387 62.0924 21.896 59.591 21.896ZM59.591 16.716C60.9537 16.716 62.1297 16.4827 63.119 16.016C64.1084 15.5493 64.8644 14.8867 65.387 14.028C65.9284 13.1693 66.199 12.1427 66.199 10.948C66.199 9.75333 65.9284 8.72666 65.387 7.868C64.8644 7.00933 64.1084 6.34666 63.119 5.88C62.1297 5.41333 60.9537 5.18 59.591 5.18C58.247 5.18 57.0804 5.41333 56.091 5.88C55.1017 6.34666 54.3364 7.00933 53.795 7.868C53.2537 8.72666 52.983 9.75333 52.983 10.948C52.983 12.1427 53.2537 13.1693 53.795 14.028C54.3364 14.8867 55.1017 15.5493 56.091 16.016C57.0804 16.4827 58.247 16.716 59.591 16.716ZM81.6157 2.996H87.4397V21.448H81.6157V2.996ZM73.6077 0.447996H95.4477V5.6H73.6077V0.447996ZM116.738 8.848V13.048H101.366V8.848H116.738ZM105.314 10.948L103.942 19.376L101.59 16.744H117.662V21.448H98.1457L99.7417 10.948L98.1457 0.447996H117.522V5.152H101.59L103.942 2.52L105.314 10.948ZM121.86 0.447996H127.656V21.448H121.86V0.447996ZM151.867 17.388L150.075 17.752V0.447996H155.703V21.448H148.395L136.271 4.172L138.035 3.808V21.448H132.407V0.447996H139.911L151.867 17.388Z" fill="#FEFEFE"/>
<path d="M174.678 11.172L175.154 10.08C176.778 10.1173 178.113 10.3693 179.158 10.836C180.222 11.284 181.016 11.9187 181.538 12.74C182.061 13.5427 182.322 14.476 182.322 15.54C182.322 16.6787 182.061 17.696 181.538 18.592C181.016 19.4693 180.232 20.1693 179.186 20.692C178.16 21.196 176.872 21.448 175.322 21.448H159.81L161.434 10.668L159.81 0.447996H174.762C176.704 0.447996 178.216 0.90533 179.298 1.82C180.381 2.716 180.922 3.96666 180.922 5.572C180.922 6.44933 180.717 7.28933 180.306 8.092C179.896 8.89466 179.233 9.576 178.318 10.136C177.422 10.6773 176.209 11.0227 174.678 11.172ZM165.55 20.104L163.31 17.388H173.754C174.594 17.388 175.248 17.1827 175.714 16.772C176.181 16.3613 176.414 15.792 176.414 15.064C176.414 14.336 176.162 13.7573 175.658 13.328C175.154 12.88 174.408 12.656 173.418 12.656H164.794V8.68H172.634C173.306 8.68 173.866 8.484 174.314 8.092C174.781 7.68133 175.014 7.13066 175.014 6.44C175.014 5.88 174.818 5.42266 174.426 5.068C174.034 4.69466 173.474 4.508 172.746 4.508H163.338L165.55 1.792L166.978 10.668L165.55 20.104ZM189.062 17.416V12.74H203.538V17.416H189.062ZM200.234 0.447996L209.782 21.448H203.594L195.586 2.912H197.266L189.23 21.448H183.042L192.59 0.447996H200.234ZM216.615 9.632H224.259C225.192 9.632 225.92 9.41733 226.443 8.988C226.965 8.55866 227.227 7.96133 227.227 7.196C227.227 6.412 226.965 5.81466 226.443 5.404C225.92 4.97466 225.192 4.76 224.259 4.76H215.803L218.407 1.988V21.448H212.611V0.447996H225.071C226.676 0.447996 228.076 0.73733 229.271 1.316C230.465 1.876 231.399 2.66 232.071 3.668C232.743 4.65733 233.079 5.83333 233.079 7.196C233.079 8.52133 232.743 9.688 232.071 10.696C231.399 11.704 230.465 12.488 229.271 13.048C228.076 13.608 226.676 13.888 225.071 13.888H216.615V9.632ZM219.751 11.62H226.275L233.807 21.448H227.087L219.751 11.62Z" fill="#E41F25"/>
</svg>
